<svg xmlns="http://www.w3.org/2000/svg" viewBox="14269 -13719 55.211 50.473">
  <defs>
    <style>
      .cls-1 {
        fill: #e54562;
      }
    </style>
  </defs>
  <g id="lotus" transform="translate(14269 -13740.971)">
    <g id="Groupe_320" data-name="Groupe 320" transform="translate(0 28.973)">
      <g id="Groupe_319" data-name="Groupe 319" transform="translate(0)">
        <path id="Tracé_271" data-name="Tracé 271" class="cls-1" d="M54.271,103.575a26.713,26.713,0,0,0-9.587,1.41A26.523,26.523,0,0,0,42.737,95.5a.974.974,0,0,0-1.268-.538,26.749,26.749,0,0,0-5.4,2.937,41.92,41.92,0,0,0-7.777-10.711.974.974,0,0,0-1.377,0A41.95,41.95,0,0,0,19.14,97.9a26.735,26.735,0,0,0-5.4-2.936.974.974,0,0,0-1.268.538,26.524,26.524,0,0,0-1.947,9.5A26.588,26.588,0,0,0,.94,103.575.974.974,0,0,0,0,104.582a26.754,26.754,0,0,0,26.694,25.79c.3,0,.607-.005.911-.016q.457.015.911.016a26.755,26.755,0,0,0,26.694-25.79A.974.974,0,0,0,54.271,103.575ZM13.926,97.156a24.692,24.692,0,0,1,12.629,12.949,26.637,26.637,0,0,0-1.637,6.657,26.9,26.9,0,0,0-12.446-11.007A24.517,24.517,0,0,1,13.926,97.156ZM2,105.506a24.6,24.6,0,0,1,16.767,6.656,24.6,24.6,0,0,1,7.809,16.262A24.808,24.808,0,0,1,2,105.506Zm20.623-4.675q-.916-.917-1.91-1.734A39.942,39.942,0,0,1,27.6,89.269,39.926,39.926,0,0,1,34.5,99.1q-.992.817-1.909,1.732a26.536,26.536,0,0,0-4.981,6.9A26.519,26.519,0,0,0,22.624,100.831ZM27.6,123.059a26.49,26.49,0,0,0-.895-2.644c-.006-.208-.01-.428-.01-.669a24.757,24.757,0,0,1,14.588-22.59,24.522,24.522,0,0,1,1.454,8.579A26.851,26.851,0,0,0,27.6,123.059Zm1.031,5.365A24.777,24.777,0,0,1,53.21,105.506,24.806,24.806,0,0,1,28.633,128.424Z" transform="translate(0 -86.902)"/>
      </g>
    </g>
    <g id="Groupe_322" data-name="Groupe 322" transform="translate(0.546 40.853)">
      <g id="Groupe_321" data-name="Groupe 321" transform="translate(0 0)">
        <circle id="Ellipse_122" data-name="Ellipse 122" class="cls-1" cx="0.974" cy="0.974" r="0.974"/>
      </g>
    </g>
    <g id="Groupe_324" data-name="Groupe 324" transform="translate(12.404 30.041)">
      <g id="Groupe_323" data-name="Groupe 323">
        <circle id="Ellipse_123" data-name="Ellipse 123" class="cls-1" cx="0.974" cy="0.974" r="0.974"/>
      </g>
    </g>
    <g id="Groupe_326" data-name="Groupe 326" transform="translate(26.631 21.971)">
      <g id="Groupe_325" data-name="Groupe 325" transform="translate(0 0)">
        <circle id="Ellipse_124" data-name="Ellipse 124" class="cls-1" cx="0.974" cy="0.974" r="0.974"/>
      </g>
    </g>
    <g id="Groupe_328" data-name="Groupe 328" transform="translate(40.86 30.041)">
      <g id="Groupe_327" data-name="Groupe 327">
        <circle id="Ellipse_125" data-name="Ellipse 125" class="cls-1" cx="0.974" cy="0.974" r="0.974"/>
      </g>
    </g>
    <g id="Groupe_330" data-name="Groupe 330" transform="translate(52.716 40.853)">
      <g id="Groupe_329" data-name="Groupe 329" transform="translate(0 0)">
        <circle id="Ellipse_126" data-name="Ellipse 126" class="cls-1" cx="0.974" cy="0.974" r="0.974"/>
      </g>
    </g>
  </g>
</svg>
