<svg xmlns="http://www.w3.org/2000/svg" viewBox="14627 -13722.933 52.933 52.933">
  <defs>
    <style>
      .cls-1 {
        fill: #e54562;
      }
    </style>
  </defs>
  <g id="open-book" transform="translate(14625.998 -13727)">
    <g id="Groupe_389" data-name="Groupe 389" transform="translate(1.002 4.067)">
      <g id="Groupe_388" data-name="Groupe 388" transform="translate(0)">
        <path id="Tracé_315" data-name="Tracé 315" class="cls-1" d="M290.226,201.078a.883.883,0,0,0,1.187.386,75.623,75.623,0,0,1,7.806-3.473.883.883,0,0,0-.533-1.683,75.665,75.665,0,0,0-8.074,3.584A.883.883,0,0,0,290.226,201.078Z" transform="translate(-260.135 -175.976)"/>
        <path id="Tracé_316" data-name="Tracé 316" class="cls-1" d="M291.014,99.161a.881.881,0,0,0,.4-.1,75.623,75.623,0,0,1,7.806-3.473.883.883,0,0,0-.533-1.683,75.667,75.667,0,0,0-8.074,3.584.882.882,0,0,0,.4,1.668Z" transform="translate(-260.135 -84.163)"/>
        <path id="Tracé_317" data-name="Tracé 317" class="cls-1" d="M52.052,13.233a.882.882,0,0,0-.882.882V48.522a2.65,2.65,0,0,1-2.647,2.647H27.35v-2.03a26,26,0,0,1,7.94-1.5,45.5,45.5,0,0,1,12.955,1.719.882.882,0,0,0,1.16-.837V9.7a.881.881,0,0,0-.691-.861s-.692-.154-1.874-.371a.882.882,0,0,0-.319,1.735c.451.083.828.156,1.12.214V47.349A49.822,49.822,0,0,0,35.29,45.875a27.715,27.715,0,0,0-8.788,1.69,20.667,20.667,0,0,0-7.974-1.69A59.45,59.45,0,0,0,5.3,47.386v-37A58.069,58.069,0,0,1,18.528,8.822a19.128,19.128,0,0,1,7.058,1.454V44.993a.882.882,0,0,0,1.337.756A101,101,0,0,1,43.509,37.89a.882.882,0,0,0,.6-.837V.883A.883.883,0,0,0,42.92.056,93.846,93.846,0,0,0,28.647,7.192a.882.882,0,0,0,.935,1.5A94.293,94.293,0,0,1,42.348,2.172V36.422a98.866,98.866,0,0,0-15,7.039V9.7a.883.883,0,0,0-.488-.79,20.428,20.428,0,0,0-8.334-1.857A57.258,57.258,0,0,0,4.17,8.857a.882.882,0,0,0-.64.848V48.522a.882.882,0,0,0,.882.882.869.869,0,0,0,.242-.034,56.67,56.67,0,0,1,13.874-1.73,19.085,19.085,0,0,1,7.058,1.455v2.074H4.413a2.65,2.65,0,0,1-2.647-2.647V14.116a.882.882,0,1,0-1.764,0V48.522a4.416,4.416,0,0,0,4.411,4.411h44.11a4.416,4.416,0,0,0,4.411-4.411V14.116A.882.882,0,0,0,52.052,13.233Z" transform="translate(-0.002 0)"/>
        <path id="Tracé_318" data-name="Tracé 318" class="cls-1" d="M290.226,149.878a.883.883,0,0,0,1.187.386,75.63,75.63,0,0,1,7.806-3.473.883.883,0,0,0-.533-1.683,75.666,75.666,0,0,0-8.074,3.584A.883.883,0,0,0,290.226,149.878Z" transform="translate(-260.135 -130.069)"/>
        <path id="Tracé_319" data-name="Tracé 319" class="cls-1" d="M290.226,252.278a.883.883,0,0,0,1.187.386,75.622,75.622,0,0,1,7.806-3.473.883.883,0,0,0-.533-1.683,75.671,75.671,0,0,0-8.074,3.584A.883.883,0,0,0,290.226,252.278Z" transform="translate(-260.135 -221.882)"/>
        <path id="Tracé_320" data-name="Tracé 320" class="cls-1" d="M97.886,154.133c-5.448-1.278-11.638.35-11.9.42a.882.882,0,0,0,.228,1.734.9.9,0,0,0,.229-.03c.059-.017,6.019-1.584,11.039-.407a.882.882,0,1,0,.4-1.718Z" transform="translate(-76.511 -137.76)"/>
        <path id="Tracé_321" data-name="Tracé 321" class="cls-1" d="M97.886,205.336c-5.448-1.277-11.638.35-11.9.42a.882.882,0,0,0,.228,1.734.9.9,0,0,0,.229-.03c.059-.017,6.019-1.584,11.039-.407a.882.882,0,1,0,.4-1.718Z" transform="translate(-76.511 -183.67)"/>
        <path id="Tracé_322" data-name="Tracé 322" class="cls-1" d="M290.226,303.478a.883.883,0,0,0,1.187.386,75.624,75.624,0,0,1,7.806-3.473.883.883,0,0,0-.533-1.683,75.666,75.666,0,0,0-8.074,3.584A.883.883,0,0,0,290.226,303.478Z" transform="translate(-260.135 -267.789)"/>
        <path id="Tracé_323" data-name="Tracé 323" class="cls-1" d="M97.886,256.535c-5.448-1.277-11.638.349-11.9.42a.883.883,0,0,0,.228,1.735.893.893,0,0,0,.229-.031c.059-.017,6.019-1.584,11.039-.407a.882.882,0,1,0,.4-1.718Z" transform="translate(-76.511 -229.576)"/>
        <path id="Tracé_324" data-name="Tracé 324" class="cls-1" d="M97.886,358.933c-5.448-1.278-11.638.35-11.9.42a.883.883,0,0,0,.228,1.735.894.894,0,0,0,.229-.031c.059-.017,6.019-1.584,11.039-.407a.882.882,0,1,0,.4-1.718Z" transform="translate(-76.511 -321.387)"/>
        <path id="Tracé_325" data-name="Tracé 325" class="cls-1" d="M97.886,307.731c-5.448-1.278-11.638.349-11.9.42a.883.883,0,0,0,.228,1.735.894.894,0,0,0,.229-.031c.059-.017,6.019-1.584,11.039-.407a.882.882,0,1,0,.4-1.718Z" transform="translate(-76.511 -275.479)"/>
      </g>
    </g>
  </g>
</svg>
