<svg xmlns="http://www.w3.org/2000/svg" viewBox="14978 -13715 64.001 35.966">
  <defs>
    <style>
      .cls-1 {
        fill: #e54562;
      }
    </style>
  </defs>
  <g id="weightlifting" transform="translate(14978 -13729.017)">
    <path id="Clocks" class="cls-1" d="M63.022,26.237a3.363,3.363,0,0,0-2.568-1.255H59V23.808a3.966,3.966,0,0,0-4.083-3.826H53V17.815a3.783,3.783,0,0,0-1.192-2.731,4.226,4.226,0,0,0-5.615,0A3.784,3.784,0,0,0,45,17.816V27.983H19V17.816a3.779,3.779,0,0,0-1.192-2.731,4.226,4.226,0,0,0-5.615,0A3.78,3.78,0,0,0,11,17.816v2.167H8.85a3.976,3.976,0,0,0-2.693,1.028A3.529,3.529,0,0,0,5,23.594v1.388H3.56a3.376,3.376,0,0,0-2.579,1.26A4.394,4.394,0,0,0,0,29.054V34.91a4.389,4.389,0,0,0,.982,2.812,3.376,3.376,0,0,0,2.578,1.26H5V40.37a3.531,3.531,0,0,0,1.159,2.585A3.971,3.971,0,0,0,8.85,43.982H11v2.167a3.779,3.779,0,0,0,1.192,2.73,4.126,4.126,0,0,0,5.616,0A3.778,3.778,0,0,0,19,46.149V35.982H45V46.149a3.779,3.779,0,0,0,1.192,2.73,4.126,4.126,0,0,0,5.616,0A3.782,3.782,0,0,0,53,46.149V43.982h1.917A3.965,3.965,0,0,0,59,40.156V38.982h1.454a3.37,3.37,0,0,0,2.569-1.255,4.371,4.371,0,0,0,.978-2.8V29.038A4.375,4.375,0,0,0,63.022,26.237ZM3.56,36.982a1.369,1.369,0,0,1-1.041-.54A2.416,2.416,0,0,1,2,34.91V29.054a2.419,2.419,0,0,1,.519-1.532,1.369,1.369,0,0,1,1.041-.54H5v10H3.56Zm5.29,5a2,2,0,0,1-1.339-.5A1.5,1.5,0,0,1,7,40.37V23.594a1.5,1.5,0,0,1,.509-1.11,2,2,0,0,1,1.341-.5H11v20H8.85ZM17,46.149a1.748,1.748,0,0,1-.565,1.276,2.2,2.2,0,0,1-2.869,0A1.747,1.747,0,0,1,13,46.149V17.815a1.748,1.748,0,0,1,.565-1.276,2.127,2.127,0,0,1,2.87,0A1.75,1.75,0,0,1,17,17.816V46.149Zm2-12.167v-4H45v4ZM51,46.149a1.748,1.748,0,0,1-.565,1.276,2.2,2.2,0,0,1-2.869,0A1.747,1.747,0,0,1,47,46.149V17.816a1.748,1.748,0,0,1,.565-1.276,2.127,2.127,0,0,1,2.87,0A1.746,1.746,0,0,1,51,17.816V46.149Zm6-5.993a1.969,1.969,0,0,1-2.083,1.826H53v-20h1.917A1.97,1.97,0,0,1,57,23.808V40.156Zm5-5.23a2.406,2.406,0,0,1-.514,1.52,1.357,1.357,0,0,1-1.032.536H59v-10h1.454a1.357,1.357,0,0,1,1.032.536A2.4,2.4,0,0,1,62,29.038Z"/>
  </g>
</svg>
